HIERARCHY
ROOT mixamorig:Hips
{
	OFFSET -0.000008 104.274872 1.554316
	CHANNELS 6 Xposition Yposition Zposition Xrotation Yrotation Zrotation
	JOINT mixamorig:Spine
	{
		OFFSET -0.000005 10.181595 0.131519
		CHANNELS 6 Xposition Yposition Zposition Xrotation Yrotation Zrotation
		JOINT mixamorig:Spine1
		{
			OFFSET -0.000000 9.893959 -1.470707
			CHANNELS 6 Xposition Yposition Zposition Xrotation Yrotation Zrotation
			JOINT mixamorig:Spine2
			{
				OFFSET -0.000000 9.220757 -1.370641
				CHANNELS 6 Xposition Yposition Zposition Xrotation Yrotation Zrotation
				JOINT mixamorig:Neck
				{
					OFFSET 0.000001 16.740417 -2.049036
					CHANNELS 6 Xposition Yposition Zposition Xrotation Yrotation Zrotation
					JOINT mixamorig:Head
					{
						OFFSET 0.000000 9.617874 1.685006
						CHANNELS 6 Xposition Yposition Zposition Xrotation Yrotation Zrotation
						JOINT mixamorig:HeadTop_End
						{
							OFFSET 0.000002 22.037354 7.501101
							CHANNELS 6 Xposition Yposition Zposition Xrotation Yrotation Zrotation
							End Site
							{
								OFFSET 0.000168 2310.654297 -282.823242
							}
						}
					}
				}
				JOINT mixamorig:RightShoulder
				{
					OFFSET -4.569970 11.014908 -2.160885
					CHANNELS 6 Xposition Yposition Zposition Xrotation Yrotation Zrotation
					JOINT mixamorig:RightArm
					{
						OFFSET -10.592851 -0.524811 -2.232101
						CHANNELS 6 Xposition Yposition Zposition Xrotation Yrotation Zrotation
						JOINT mixamorig:RightForeArm
						{
							OFFSET -27.841511 0.000031 -0.000004
							CHANNELS 6 Xposition Yposition Zposition Xrotation Yrotation Zrotation
							JOINT mixamorig:RightHand
							{
								OFFSET -28.328831 -0.000015 0.000015
								CHANNELS 6 Xposition Yposition Zposition Xrotation Yrotation Zrotation
								JOINT mixamorig:RightHandThumb1
								{
									OFFSET -2.464806 -1.573990 2.681852
									CHANNELS 6 Xposition Yposition Zposition Xrotation Yrotation Zrotation
									JOINT mixamorig:RightHandThumb2
									{
										OFFSET -3.215179 -1.872803 1.924282
										CHANNELS 6 Xposition Yposition Zposition Xrotation Yrotation Zrotation
										JOINT mixamorig:RightHandThumb3
										{
											OFFSET -2.654831 -1.527969 1.512609
											CHANNELS 6 Xposition Yposition Zposition Xrotation Yrotation Zrotation
											JOINT mixamorig:RightHandThumb4
											{
												OFFSET -2.018814 -1.152008 1.108052
												CHANNELS 6 Xposition Yposition Zposition Xrotation Yrotation Zrotation
												End Site
												{
													OFFSET -188.809540 -114.533607 132.431396
												}
											}
										}
									}
								}
								JOINT mixamorig:RightHandIndex1
								{
									OFFSET -9.108284 -0.517868 2.259835
									CHANNELS 6 Xposition Yposition Zposition Xrotation Yrotation Zrotation
									JOINT mixamorig:RightHandIndex2
									{
										OFFSET -3.699989 0.000000 0.001215
										CHANNELS 6 Xposition Yposition Zposition Xrotation Yrotation Zrotation
										JOINT mixamorig:RightHandIndex3
										{
											OFFSET -2.850006 0.000031 -0.000522
											CHANNELS 6 Xposition Yposition Zposition Xrotation Yrotation Zrotation
											JOINT mixamorig:RightHandIndex4
											{
												OFFSET -2.772186 -0.000015 -0.000020
												CHANNELS 6 Xposition Yposition Zposition Xrotation Yrotation Zrotation
												End Site
												{
													OFFSET -277.218445 0.000000 -0.050231
												}
											}
										}
									}
								}
								JOINT mixamorig:RightHandMiddle1
								{
									OFFSET -9.532516 -0.000031 -0.000023
									CHANNELS 6 Xposition Yposition Zposition Xrotation Yrotation Zrotation
									JOINT mixamorig:RightHandMiddle2
									{
										OFFSET -3.700005 -0.000015 0.003713
										CHANNELS 6 Xposition Yposition Zposition Xrotation Yrotation Zrotation
										JOINT mixamorig:RightHandMiddle3
										{
											OFFSET -2.949974 0.000015 -0.002054
											CHANNELS 6 Xposition Yposition Zposition Xrotation Yrotation Zrotation
											JOINT mixamorig:RightHandMiddle4
											{
												OFFSET -2.946640 0.000000 -0.000156
												CHANNELS 6 Xposition Yposition Zposition Xrotation Yrotation Zrotation
												End Site
												{
													OFFSET -294.664337 0.000000 -0.113670
												}
											}
										}
									}
								}
								JOINT mixamorig:RightHandRing1
								{
									OFFSET -9.103600 -0.043076 -1.865134
									CHANNELS 6 Xposition Yposition Zposition Xrotation Yrotation Zrotation
									JOINT mixamorig:RightHandRing2
									{
										OFFSET -3.379288 0.000000 -0.001055
										CHANNELS 6 Xposition Yposition Zposition Xrotation Yrotation Zrotation
										JOINT mixamorig:RightHandRing3
										{
											OFFSET -2.889687 -0.000015 0.000379
											CHANNELS 6 Xposition Yposition Zposition Xrotation Yrotation Zrotation
											JOINT mixamorig:RightHandRing4
											{
												OFFSET -2.638809 -0.000015 0.000941
												CHANNELS 6 Xposition Yposition Zposition Xrotation Yrotation Zrotation
												End Site
												{
													OFFSET -263.880371 0.000000 0.516020
												}
											}
										}
									}
								}
								JOINT mixamorig:RightHandPinky1
								{
									OFFSET -8.076683 -0.486710 -3.806280
									CHANNELS 6 Xposition Yposition Zposition Xrotation Yrotation Zrotation
									JOINT mixamorig:RightHandPinky2
									{
										OFFSET -3.600014 -0.000015 -0.003747
										CHANNELS 6 Xposition Yposition Zposition Xrotation Yrotation Zrotation
										JOINT mixamorig:RightHandPinky3
										{
											OFFSET -2.099983 0.000000 -0.005739
											CHANNELS 6 Xposition Yposition Zposition Xrotation Yrotation Zrotation
											JOINT mixamorig:RightHandPinky4
											{
												OFFSET -2.115768 -0.000031 -0.003680
												CHANNELS 6 Xposition Yposition Zposition Xrotation Yrotation Zrotation
												End Site
												{
													OFFSET -211.577087 0.000000 -0.350686
												}
											}
										}
									}
								}
							}
						}
					}
				}
				JOINT mixamorig:LeftShoulder
				{
					OFFSET 4.570447 11.014725 -2.160855
					CHANNELS 6 Xposition Yposition Zposition Xrotation Yrotation Zrotation
					JOINT mixamorig:LeftArm
					{
						OFFSET 10.592371 -0.524597 -2.232119
						CHANNELS 6 Xposition Yposition Zposition Xrotation Yrotation Zrotation
						JOINT mixamorig:LeftForeArm
						{
							OFFSET 27.841532 -0.000031 0.000026
							CHANNELS 6 Xposition Yposition Zposition Xrotation Yrotation Zrotation
							JOINT mixamorig:LeftHand
							{
								OFFSET 28.328846 -0.000061 0.000022
								CHANNELS 6 Xposition Yposition Zposition Xrotation Yrotation Zrotation
								JOINT mixamorig:LeftHandThumb1
								{
									OFFSET 2.466141 -1.576172 2.681732
									CHANNELS 6 Xposition Yposition Zposition Xrotation Yrotation Zrotation
									JOINT mixamorig:LeftHandThumb2
									{
										OFFSET 3.217812 -1.872070 1.916482
										CHANNELS 6 Xposition Yposition Zposition Xrotation Yrotation Zrotation
										JOINT mixamorig:LeftHandThumb3
										{
											OFFSET 2.656029 -1.528778 1.514513
											CHANNELS 6 Xposition Yposition Zposition Xrotation Yrotation Zrotation
											JOINT mixamorig:LeftHandThumb4
											{
												OFFSET 2.020889 -1.154053 1.115139
												CHANNELS 6 Xposition Yposition Zposition Xrotation Yrotation Zrotation
												End Site
												{
													OFFSET 190.885437 -115.081749 130.048782
												}
											}
										}
									}
								}
								JOINT mixamorig:LeftHandIndex1
								{
									OFFSET 9.109314 -0.518021 2.259871
									CHANNELS 6 Xposition Yposition Zposition Xrotation Yrotation Zrotation
									JOINT mixamorig:LeftHandIndex2
									{
										OFFSET 3.699989 0.000000 -0.000322
										CHANNELS 6 Xposition Yposition Zposition Xrotation Yrotation Zrotation
										JOINT mixamorig:LeftHandIndex3
										{
											OFFSET 2.850006 0.000000 0.000352
											CHANNELS 6 Xposition Yposition Zposition Xrotation Yrotation Zrotation
											JOINT mixamorig:LeftHandIndex4
											{
												OFFSET 2.774864 -0.000031 -0.000027
												CHANNELS 6 Xposition Yposition Zposition Xrotation Yrotation Zrotation
												End Site
												{
													OFFSET 277.486267 0.000000 -0.009857
												}
											}
										}
									}
								}
								JOINT mixamorig:LeftHandMiddle1
								{
									OFFSET 9.533394 0.000061 0.000044
									CHANNELS 6 Xposition Yposition Zposition Xrotation Yrotation Zrotation
									JOINT mixamorig:LeftHandMiddle2
									{
										OFFSET 3.699989 -0.000015 -0.000231
										CHANNELS 6 Xposition Yposition Zposition Xrotation Yrotation Zrotation
										JOINT mixamorig:LeftHandMiddle3
										{
											OFFSET 2.949997 -0.000015 -0.000059
											CHANNELS 6 Xposition Yposition Zposition Xrotation Yrotation Zrotation
											JOINT mixamorig:LeftHandMiddle4
											{
												OFFSET 2.952896 0.000031 0.000063
												CHANNELS 6 Xposition Yposition Zposition Xrotation Yrotation Zrotation
												End Site
												{
													OFFSET 295.289337 0.000000 0.022810
												}
											}
										}
									}
								}
								JOINT mixamorig:LeftHandRing1
								{
									OFFSET 9.104523 -0.042999 -1.865074
									CHANNELS 6 Xposition Yposition Zposition Xrotation Yrotation Zrotation
									JOINT mixamorig:LeftHandRing2
									{
										OFFSET 3.150009 -0.000031 0.000043
										CHANNELS 6 Xposition Yposition Zposition Xrotation Yrotation Zrotation
										JOINT mixamorig:LeftHandRing3
										{
											OFFSET 2.949982 -0.000015 0.000040
											CHANNELS 6 Xposition Yposition Zposition Xrotation Yrotation Zrotation
											JOINT mixamorig:LeftHandRing4
											{
												OFFSET 2.644348 0.000000 0.000057
												CHANNELS 6 Xposition Yposition Zposition Xrotation Yrotation Zrotation
												End Site
												{
													OFFSET 264.434631 0.000000 0.012105
												}
											}
										}
									}
								}
								JOINT mixamorig:LeftHandPinky1
								{
									OFFSET 8.077789 -0.486847 -3.806259
									CHANNELS 6 Xposition Yposition Zposition Xrotation Yrotation Zrotation
									JOINT mixamorig:LeftHandPinky2
									{
										OFFSET 3.599953 0.000031 0.014727
										CHANNELS 6 Xposition Yposition Zposition Xrotation Yrotation Zrotation
										JOINT mixamorig:LeftHandPinky3
										{
											OFFSET 2.100021 0.000015 0.007705
											CHANNELS 6 Xposition Yposition Zposition Xrotation Yrotation Zrotation
											JOINT mixamorig:LeftHandPinky4
											{
												OFFSET 2.125504 0.000031 0.007517
												CHANNELS 6 Xposition Yposition Zposition Xrotation Yrotation Zrotation
												End Site
												{
													OFFSET 212.550781 0.000000 0.625752
												}
											}
										}
									}
								}
							}
						}
					}
				}
			}
		}
	}
	JOINT mixamorig:RightUpLeg
	{
		OFFSET -8.207787 -6.751648 -1.599560
		CHANNELS 6 Xposition Yposition Zposition Xrotation Yrotation Zrotation
		JOINT mixamorig:RightLeg
		{
			OFFSET -0.000002 -44.370117 0.345942
			CHANNELS 6 Xposition Yposition Zposition Xrotation Yrotation Zrotation
			JOINT mixamorig:RightFoot
			{
				OFFSET 0.000003 -44.423679 -3.043532
				CHANNELS 6 Xposition Yposition Zposition Xrotation Yrotation Zrotation
				JOINT mixamorig:RightToeBase
				{
					OFFSET -0.000002 -8.728671 10.710558
					CHANNELS 6 Xposition Yposition Zposition Xrotation Yrotation Zrotation
					JOINT mixamorig:RightToe_End
					{
						OFFSET -0.000001 -0.000679 9.278119
						CHANNELS 6 Xposition Yposition Zposition Xrotation Yrotation Zrotation
						End Site
						{
							OFFSET 0.000000 -0.067690 927.812134
						}
					}
				}
			}
		}
	}
	JOINT mixamorig:LeftUpLeg
	{
		OFFSET 8.207793 -6.751686 -1.599556
		CHANNELS 6 Xposition Yposition Zposition Xrotation Yrotation Zrotation
		JOINT mixamorig:LeftLeg
		{
			OFFSET -0.000004 -44.370014 0.346954
			CHANNELS 6 Xposition Yposition Zposition Xrotation Yrotation Zrotation
			JOINT mixamorig:LeftFoot
			{
				OFFSET -0.000001 -44.423672 -3.044401
				CHANNELS 6 Xposition Yposition Zposition Xrotation Yrotation Zrotation
				JOINT mixamorig:LeftToeBase
				{
					OFFSET -0.000002 -8.728669 10.710558
					CHANNELS 6 Xposition Yposition Zposition Xrotation Yrotation Zrotation
					JOINT mixamorig:LeftToe_End
					{
						OFFSET -0.000003 -0.000679 9.278133
						CHANNELS 6 Xposition Yposition Zposition Xrotation Yrotation Zrotation
						End Site
						{
							OFFSET 0.000000 -0.068021 927.813477
						}
					}
				}
			}
		}
	}
}
MOTION
Frames: 3
Frame Time: 0.033333
0.000006 104.270477 1.554256 0.000010 0.000003 -0.000113 -0.000005 10.181587 0.131522 0.000001 -0.000003 0.000084 -0.000000 9.893967 -1.470711 0.000001 0.000000 -0.000000 -0.000000 9.220802 -1.370642 0.000000 -0.000000 -0.000000 0.000001 16.740433 -2.049030 0.000000 -0.000000 -0.000000 0.000000 9.617859 1.685014 0.000000 0.000000 0.000000 0.000002 22.037384 7.501101 0.000000 -0.000000 0.000000 -4.569968 11.014880 -2.160881 0.000008 0.000001 -0.000038 -10.592868 -0.524795 -2.231872 75.481199 36.638784 -28.748099 -27.841511 0.000022 0.000561 -46.459254 105.350176 58.751505 -28.328806 0.000011 0.000024 -0.000323 -0.000046 0.000010 -2.464403 -1.573804 2.682313 -45.403440 -158.394095 -4.426803 -3.215240 -1.872505 1.924596 143.760128 32.796482 34.301729 -2.654961 -1.527851 1.513044 146.783443 28.679787 -18.202558 -2.018834 -1.152015 1.108052 -0.000005 -0.000001 0.000002 -9.108364 -0.517559 2.260179 113.605307 12.847570 -19.595478 -3.700054 0.000326 0.001570 110.455968 10.662709 -15.277489 -2.850083 0.000365 -0.000199 109.179624 9.192965 -12.902612 -2.772170 0.000001 -0.000024 -0.000002 -0.000001 -0.000001 -9.532589 0.000271 0.000262 102.117585 14.476974 -18.037727 -3.700069 0.000310 0.004006 103.896453 11.597985 -14.665255 -2.950056 0.000346 -0.001779 103.092744 11.388626 -14.304854 -2.946631 0.000001 -0.000147 0.000000 -0.000002 -0.000000 -9.103707 -0.042759 -1.864853 96.481633 19.205729 -21.409839 -3.379359 0.000307 -0.000749 102.420271 11.875621 -14.768939 -2.889771 0.000345 0.000692 104.891160 9.504252 -12.403589 -2.638814 0.000000 0.000941 0.000000 0.000001 -0.000001 -8.076765 -0.486412 -3.806063 78.628776 22.840890 -18.654625 -3.600065 0.000255 -0.003536 81.130701 13.425262 -11.182391 -2.100034 0.000304 -0.005522 82.502183 7.673756 -6.534032 -2.115757 -0.000029 -0.003676 0.000001 -0.000000 -0.000005 4.570446 11.014691 -2.160851 -0.000018 0.000010 -0.000021 10.592512 -0.524534 -2.232386 59.811345 -64.861150 40.148419 27.841751 -0.000040 -0.000116 237.037453 -79.294849 246.507920 28.328831 -0.000028 0.000018 0.000022 -0.000089 0.000000 2.466107 -1.576200 2.681853 105.775615 121.283068 -148.527122 3.217722 -1.872039 1.916529 25.091588 119.613264 -76.755029 2.655836 -1.528809 1.514620 -21.282531 134.350463 -25.436719 2.020890 -1.154070 1.115144 0.000003 0.000003 0.000006 9.109079 -0.517722 2.259964 188.108314 -6.340912 284.001888 3.700136 0.000199 -0.000284 169.511758 -6.120896 60.624909 2.850031 0.000391 0.000313 -30.936379 -178.788234 -175.627154 2.774879 -0.000018 -0.000028 -0.000001 0.000000 -0.000003 9.533323 0.000455 0.000148 190.807564 -2.215423 336.952793 3.699991 0.000412 -0.000187 176.422038 0.093802 356.927736 2.949994 0.000395 -0.000083 -204.709567 0.955799 -364.350868 2.952870 -0.000032 0.000068 -0.000001 -0.000002 0.000001 9.104561 -0.042649 -1.864973 192.581432 0.842834 7.619220 3.150051 0.000052 0.000104 -177.921934 2.297530 95.664333 2.950023 0.000334 0.000066 -190.922188 -1.347822 14.045320 2.644305 0.000028 0.000056 -0.000000 0.000002 -0.000001 8.077837 -0.486494 -3.806165 188.444824 1.673367 375.341353 3.599668 0.000060 0.014767 -1.735350 -187.578578 380.786270 2.099702 0.000373 0.007699 -192.873873 9.554596 -72.475144 2.125507 -0.000013 0.007512 -0.000001 -0.000001 0.000002 -8.207786 -6.751667 -1.599560 -0.077001 -0.000003 0.000080 -0.000002 -44.370110 0.345938 0.153719 -0.000000 -0.000000 0.000000 -44.423679 -3.043532 -0.076700 0.000000 -0.000002 -0.000006 -8.728667 10.710559 -0.000009 -0.000000 -0.000000 -0.000001 -0.000679 9.278123 0.000000 -0.000000 -0.000000 8.207792 -6.751710 -1.599556 -0.074518 -0.000003 0.000081 -0.000002 -44.370014 0.346960 0.148822 0.000002 0.000000 -0.000001 -44.423664 -3.044403 -0.074314 0.000000 -0.000002 -0.000004 -8.728671 10.710558 0.000007 -0.000000 -0.000000 0.000000 -0.000680 9.278137 -0.000000 0.000000 -0.000001 
0.000006 104.270477 1.554256 0.000010 0.000003 -0.000113 -0.000005 10.181587 0.131522 0.000001 -0.000003 0.000084 -0.000000 9.893967 -1.470711 0.000001 0.000000 -0.000000 -0.000000 9.220802 -1.370642 0.000000 -0.000000 -0.000000 0.000001 16.740433 -2.049030 0.000000 -0.000000 -0.000000 0.000000 9.617859 1.685014 0.000000 0.000000 0.000000 0.000002 22.037384 7.501101 0.000000 -0.000000 0.000000 -4.569968 11.014880 -2.160881 0.000008 0.000001 -0.000038 -10.592866 -0.524790 -2.231870 75.531210 37.809434 -29.718385 -27.841515 0.000027 0.000548 -46.496571 105.239855 58.697744 -28.328819 0.000009 0.000025 -0.000318 -0.000044 0.000006 -2.464395 -1.573822 2.682327 -44.718447 -157.691992 -2.954880 -3.215232 -1.872476 1.924610 143.744036 32.953603 36.091112 -2.654972 -1.527858 1.513049 147.539968 28.517525 -19.552769 -2.018819 -1.152004 1.108057 -0.000002 -0.000006 0.000002 -9.108354 -0.517561 2.260170 113.100529 13.195482 -19.930140 -3.700046 0.000307 0.001565 110.249082 10.865186 -15.507200 -2.850075 0.000372 -0.000212 108.975545 9.263405 -12.952574 -2.772155 0.000000 -0.000019 0.000002 -0.000003 -0.000000 -9.532585 0.000276 0.000268 101.470800 15.055071 -18.536531 -3.700068 0.000313 0.004014 103.903932 11.851804 -14.989053 -2.950070 0.000319 -0.001754 103.460659 11.560897 -14.615592 -2.946623 0.000000 -0.000154 0.000000 -0.000002 -0.000001 -9.103683 -0.042772 -1.864847 95.643515 20.010998 -21.987175 -3.379346 0.000318 -0.000767 102.242215 12.082842 -14.978101 -2.889764 0.000347 0.000671 105.319967 9.463700 -12.446447 -2.638811 0.000001 0.000935 0.000000 0.000004 0.000001 -8.076753 -0.486412 -3.806062 78.576293 23.082377 -18.837435 -3.600058 0.000254 -0.003540 81.392386 13.432564 -11.240182 -2.100038 0.000302 -0.005526 83.253080 7.617016 -6.570441 -2.115765 -0.000055 -0.003672 0.000004 0.000000 -0.000005 4.570446 11.014691 -2.160851 -0.000018 0.000010 -0.000021 10.592514 -0.524535 -2.232394 62.435203 -64.318676 41.718235 27.841759 -0.000066 -0.000116 238.219185 -79.745150 247.373934 28.328840 -0.000016 0.000020 0.000018 -0.000090 -0.000000 2.466094 -1.576174 2.681849 105.408984 117.920689 -147.551101 3.217708 -1.872069 1.916529 13.806122 118.655330 -63.888968 2.655829 -1.528833 1.514597 -23.993478 134.375858 -21.287272 2.020887 -1.154071 1.115144 0.000001 0.000003 0.000004 9.109045 -0.517817 2.259955 184.512971 -6.245404 251.644277 3.700114 0.000217 -0.000301 165.241086 -6.840174 49.672745 2.850024 0.000391 0.000294 -35.967517 -177.971739 -173.760709 2.774884 -0.000016 -0.000023 -0.000001 -0.000002 0.000004 9.533348 0.000451 0.000140 189.651308 -1.613496 341.129727 3.699972 0.000363 -0.000202 171.833462 0.725029 349.841852 2.950005 0.000380 -0.000095 -210.629319 0.735600 -362.677007 2.952867 -0.000032 0.000064 0.000006 0.000000 -0.000000 9.104594 -0.042647 -1.864970 192.092855 2.148048 20.056690 3.149669 0.000069 0.000096 -180.768579 3.685204 203.517234 2.950009 0.000387 0.000046 -195.900904 -1.204246 8.618205 2.644323 0.000028 0.000054 0.000000 -0.000001 0.000001 8.077896 -0.486530 -3.806159 190.092675 4.289977 399.683983 3.599677 0.000017 0.014766 -1.218580 -190.317293 369.193117 2.099728 0.000367 0.007695 -194.113539 11.068047 -75.688106 2.125506 -0.000019 0.007514 -0.000002 -0.000000 0.000002 -8.207786 -6.751667 -1.599560 -0.077001 -0.000003 0.000080 -0.000002 -44.370110 0.345938 0.153719 -0.000000 -0.000000 0.000000 -44.423679 -3.043532 -0.076700 0.000000 -0.000002 -0.000006 -8.728667 10.710559 -0.000009 -0.000000 -0.000000 -0.000001 -0.000679 9.278123 0.000000 -0.000000 -0.000000 8.207792 -6.751710 -1.599556 -0.074518 -0.000003 0.000081 -0.000002 -44.370014 0.346960 0.148822 0.000002 0.000000 -0.000001 -44.423664 -3.044403 -0.074314 0.000000 -0.000002 -0.000004 -8.728671 10.710558 0.000007 -0.000000 -0.000000 0.000000 -0.000680 9.278137 -0.000000 0.000000 -0.000001 
0.000006 104.270477 1.554256 0.000010 0.000003 -0.000113 -0.000005 10.181587 0.131522 0.000001 -0.000003 0.000084 -0.000000 9.893967 -1.470711 0.000001 0.000000 -0.000000 -0.000000 9.220802 -1.370642 0.000000 -0.000000 -0.000000 0.000001 16.740433 -2.049030 0.000000 -0.000000 -0.000000 0.000000 9.617859 1.685014 0.000000 0.000000 0.000000 0.000002 22.037384 7.501101 0.000000 -0.000000 0.000000 -4.569968 11.014880 -2.160881 0.000008 0.000001 -0.000038 -10.592869 -0.524788 -2.231865 75.405220 36.331706 -28.463256 -27.841513 0.000004 0.000559 -46.901594 105.469035 59.378782 -28.328819 0.000023 0.000034 -0.000321 -0.000043 0.000009 -2.464387 -1.573822 2.682337 -42.765918 -156.444909 1.217861 -3.215227 -1.872493 1.924601 144.635130 33.153865 34.657439 -2.654959 -1.527862 1.513039 147.498126 28.357279 -21.279745 -2.018827 -1.151995 1.108061 -0.000003 -0.000003 0.000002 -9.108360 -0.517546 2.260192 113.394220 13.554588 -20.576659 -3.700059 0.000310 0.001580 110.449090 11.421215 -16.356836 -2.850084 0.000374 -0.000183 109.151914 9.757343 -13.684242 -2.772154 0.000000 -0.000014 0.000001 0.000000 -0.000001 -9.532596 0.000273 0.000266 101.669203 15.237281 -18.823060 -3.700063 0.000325 0.004018 103.990101 11.876000 -15.042745 -2.950056 0.000334 -0.001737 103.665613 11.614367 -14.736476 -2.946623 0.000015 -0.000155 -0.000000 -0.000002 -0.000001 -9.103694 -0.042767 -1.864853 96.042807 19.962333 -22.084225 -3.379362 0.000304 -0.000745 102.820780 12.027173 -15.062719 -2.889773 0.000339 0.000678 105.783545 9.579354 -12.702785 -2.638813 -0.000014 0.000943 0.000000 -0.000002 -0.000002 -8.076781 -0.486411 -3.806039 78.332325 23.447011 -19.057910 -3.600050 0.000248 -0.003544 81.009356 13.865877 -11.534770 -2.100025 0.000299 -0.005516 82.820347 7.932859 -6.798703 -2.115771 -0.000038 -0.003682 -0.000002 -0.000003 -0.000002 4.570446 11.014691 -2.160851 -0.000018 0.000010 -0.000021 10.592516 -0.524535 -2.232399 65.475416 -63.254915 43.202377 27.841751 -0.000053 -0.000125 240.195705 -80.282385 249.003808 28.328838 -0.000014 0.000018 0.000018 -0.000087 0.000000 2.466091 -1.576194 2.681841 104.873914 117.518158 -147.057265 3.217686 -1.872064 1.916531 11.312923 119.101219 -61.359025 2.655816 -1.528835 1.514610 -28.235459 136.866759 -15.510159 2.020887 -1.154066 1.115143 0.000001 0.000006 0.000007 9.109039 -0.517796 2.259959 184.362474 -5.440568 257.406990 3.700081 0.000319 -0.000323 161.954741 -4.249290 26.405271 2.849985 0.000374 0.000274 -43.101431 -182.387156 -186.042318 2.774873 -0.000014 -0.000026 0.000004 0.000000 -0.000001 9.533346 0.000451 0.000140 189.425434 -1.570880 341.186828 3.699764 0.000380 -0.000207 171.374036 5.044271 299.417216 2.949904 0.000376 -0.000132 -218.014502 9.549915 -387.256836 2.952872 -0.000016 0.000080 -0.000001 0.000003 0.000001 9.104583 -0.042622 -1.864970 191.951975 1.652646 15.672969 3.149720 0.000004 0.000080 -179.674956 9.836693 176.205808 2.949717 0.000437 -0.000024 -203.635055 13.872743 -60.350110 2.644321 0.000030 0.000061 -0.000002 0.000001 -0.000001 8.077885 -0.486543 -3.806157 192.108824 4.235389 393.221176 3.599838 -0.000035 0.014770 3.427259 -196.004750 332.440470 2.099660 0.000180 0.007663 -194.378933 25.320703 -122.041069 2.125500 -0.000032 0.007509 0.000002 0.000002 0.000001 -8.207786 -6.751667 -1.599560 -0.077001 -0.000003 0.000080 -0.000002 -44.370110 0.345938 0.153719 -0.000000 -0.000000 0.000000 -44.423679 -3.043532 -0.076700 0.000000 -0.000002 -0.000006 -8.728667 10.710559 -0.000009 -0.000000 -0.000000 -0.000001 -0.000679 9.278123 0.000000 -0.000000 -0.000000 8.207792 -6.751710 -1.599556 -0.074518 -0.000003 0.000081 -0.000002 -44.370014 0.346960 0.148822 0.000002 0.000000 -0.000001 -44.423664 -3.044403 -0.074314 0.000000 -0.000002 -0.000004 -8.728671 10.710558 0.000007 -0.000000 -0.000000 0.000000 -0.000680 9.278137 -0.000000 0.000000 -0.000001 
